# xmcd
#
# Track frame offsets: 
#        150
#        22243
#        43675
#        59532
#        76004
#        93135
#        104051
#        120523
#        133810
#        147565
#
# Disc length: 2186 seconds
#
# Revision: 0
# Processed by: cddbd v1.5.2PL0 Copyright (c) Steve Scherf et al.
# Submitted via: ExactAudioCopyFreeDBPlugin 1.0
#
DISCID=8d08880a
DTITLE=Garth Brooks - Triple Live (2019 Legacy Box Set
DYEAR=2018
DGENRE=Country
TTITLE0=The Thunder Rolls
TTITLE1=That Summer
TTITLE2=Ask Me How I Know
TTITLE3=Fishin' In The Dark
TTITLE4=In Anothers Eyes
TTITLE5=All Day Long
TTITLE6=Rodeo
TTITLE7=Mom
TTITLE8=Papa Loved Mama
TTITLE9=Guy Goin' Nowhere
EXTD=
EXTT0=
EXTT1=
EXTT2=
EXTT3=
EXTT4=
EXTT5=
EXTT6=
EXTT7=
EXTT8=
EXTT9=
PLAYORDER=
